/* XPM */
static char *result[] = {
/* columns rows colors chars-per-pixel */
"56 56 6 1 ",
"  c black",
". c #960808",
"X c red",
"o c #4CAF50",
"O c white",
"+ c None",
/* pixels */
"++++++++++++++++++++++++++++++++++++++++++++++++++++++++",
"++++++++++++++++++++++++++++++++++++++++++++++++++++++++",
"++++++++++++++++++++++++++++++++++++++++++++++++++++++++",
"++++++++++++++++++++++++++++++++++++++++++++++++++++++++",
"++++++++++++++++++++++++++++++++++++++++++++++++++++++++",
"++++++++++++++++++++++++++++++++++++++++++++++++++++++++",
"++++++++++++++++++++++++++++++++++++++++++++++++++++++++",
"++++++++++++++++++++++++++++++++++++++++      ++++++++++",
"++++++++++++++++++++++++++++++++++++++++      ++++++++++",
"++++++++++++++++++++++++++++++++++++++++      ++++++++++",
"++++++++++++++++++++++++++++++++++      oooooo   +++++++",
"++++++++++++++++++++++++++++++++++      oooooo   +++++++",
"++++++++++++++++++++++++++++++++++      oooooo   +++++++",
"++++++++++++++++++++++++++++      oooooooooooo   +++++++",
"++++++++++++++++++++++++++++      oooooooooooo   +++++++",
"++++++++++++++++++++++++++++      oooooooooooo   +++++++",
"+++++++++++++++++++++++++   oooooo   ooo      ++++++++++",
"+++++++++++++++++++++++++   oooooo   ooo      ++++++++++",
"+++++++++++++++++++++++++   oooooo   ooo      ++++++++++",
"+++++++++++++            ooo         ooo   OO+++++++++++",
"+++++++++++++            ooo         ooo   OO+++++++++++",
"+++++++++++++            ooo         ooo   +++++++++++++",
"++++++++++   XXXXXXXXXooo   +++   ooo   ++++++++++++++++",
"++++++++++   XXXXXXXXXooo   +++   ooo   ++++++++++++++++",
"++++++++++   XXXXXXXXXooo   +++   ooo   ++++++++++++++++",
"+++++++   ...XXXXXXXXXXXXXXX   ooo      ++++++++++++++++",
"+++++++   ...XXXXXXXXXXXXXXX   ooo      ++++++++++++++++",
"+++++++   ...XXXXXXXXXXXXXXX   ooo      ++++++++++++++++",
"+++++++   ...XXXXXXXXXXXX   XXXoooXXXXXX   +++++++++++++",
"+++++++   ...XXXXXXXXXXXX   XXXoooXXXXXX   +++++++++++++",
"+++++++   ...XXXXXXXXXXXX   XXXoooXXXXXX   +++++++++++++",
"+++++++   ...OOOXXXXXX   ...XXXXXXXXXXXXXXX   ++++++++++",
"+++++++   ...OOOXXXXXX   ...XXXXXXXXXXXXXXX   ++++++++++",
"+++++++   ...OOOXXXXXX   ...XXXXXXXXXXXXXXX   ++++++++++",
"+++++++   ......OOOXXX   ...XXXXXXXXXXXXXXX   ++++++++++",
"+++++++   ......OOOXXX   ...XXXXXXXXXXXXXXX   ++++++++++",
"+++++++   ......OOOXXX   ...XXXXXXXXXXXXXXX   ++++++++++",
"++++++++++   .........   ...OOOXXXXXXXXXXXX   ++++++++++",
"++++++++++   .........   ...OOOXXXXXXXXXXXX   ++++++++++",
"++++++++++   .........   ...OOOXXXXXXXXXXXX   ++++++++++",
"+++++++++++++            ......OOOXXXXXXXXX   ++++++++++",
"+++++++++++++            ......OOOXXXXXXXXX   ++++++++++",
"+++++++++++++            ......OOOXXXXXXXXX   ++++++++++",
"+++++++++++++++++++++++++   ............   +++++++++++++",
"+++++++++++++++++++++++++   ............   +++++++++++++",
"+++++++++++++++++++++++++   ............   +++++++++++++",
"++++++++++++++++++++++++++++            ++++++++++++++++",
"++++++++++++++++++++++++++++            ++++++++++++++++",
"++++++++++++++++++++++++++++            ++++++++++++++++",
"++++++++++++++++++++++++++++++++++++++++++++++++++++++++",
"++++++++++++++++++++++++++++++++++++++++++++++++++++++++",
"++++++++++++++++++++++++++++++++++++++++++++++++++++++++",
"++++++++++++++++++++++++++++++++++++++++++++++++++++++++",
"++++++++++++++++++++++++++++++++++++++++++++++++++++++++",
"++++++++++++++++++++++++++++++++++++++++++++++++++++++++",
"++++++++++++++++++++++++++++++++++++++++++++++++++++++++"
};
