/* XPM */
static char *result[] = {
/* columns rows colors chars-per-pixel */
"56 56 7 1 ",
"  c black",
". c #B71C1C",
"X c #D50000",
"o c #8F5643",
"O c #7CB342",
"+ c white",
"@ c None",
/* pixels */
"@@@@@@@@@@@@@@@@@@@@@@@@@@@@@@@@@@@@@@@@@@@@@@@@@@@@@@@@",
"@@@@@@@@@@@@@@@@@@@@@@@@@@@@@@@@@@@@@@@@@@@@@@@@@@@@@@@@",
"@@@@@@@@@@@@@@@@@@@@@@@@@@@@@@@@@@@@@@@@@@@@@@@@@@@@@@@@",
"@@@@@@@@@@@@@@@@@@@@@@@@@@@@@@@@@@@@@@@@@@@@@@@@@@@@@@@@",
"@@@@@@@@@@@@@@@@@@@@@@@@@@@@@@@@@@@@@@@@@@@@@@@@@@@@@@@@",
"@@@@@@@@@@@@@@@@@@@@@@@@@@@@@@@@@@@@@@@@@@@@@@@@@@@@@@@@",
"@@@@@@@@@@@@@@@@@@@@@@@@@@@@@@@@@@@@@@@@@@@@@@@@@@@@@@@@",
"@@@@@@@@@@@@@@@@@@@@@@@@@@@@@@@@@@@@@@@@@@@@@@@@@@@@@@@@",
"@@@@@@@@@@@@@@@@@@@@@@@@@@@@@@@@@@@@@@@@@@@@@@@@@@@@@@@@",
"@@@@@@@@@@@@@@@@@@@@@@@@@@@@@@@@@@@@@@@@@@@@@@@@@@@@@@@@",
"@@@@@@@@@@@@@@@@@@@@@@@@@@@@@@@@@@@@@@@@@@@@@@@@@@@@@@@@",
"@@@@@@@@@@@@@@@@@@@@@@@@@@@@@@@@@@@@@@@@@@@@@@@@@@@@@@@@",
"@@@@@@@@@@@@@@@@@@@@@@@@@@@@@@@@@@@@@@@@@@@@@@@@@@@@@@@@",
"@@@@@@@@@@@@@@@@@@@@@@@@@@@@@@@@@@@@@@@@@@@@@@@@@@@@@@@@",
"@@@@@@@@@@@@@@@@@@@@@@@@@@@@@@@@@@@@@@@@@@@@@@@@@@@@@@@@",
"@@@@@@@@@@@@@@@@@@@@@@@@@@@@   @@@@@@@@@@@@@@@@@@@@@@@@@",
"@@@@@@@@@@@@@@@@@@@@@@@@@@  oo @@@@@@@@@@@@@@@@@@@@@@@@@",
"@@@@@@@@@@@@@@@@@@@@@@@@@ oooo @@@@@@@@@@@@@@@@@@@@@@@@@",
"@@@@@@@@@@@@@@@@@@@@@@@@ ooo     @@@@@@@@@@@@@@@@@@@@@@@",
"@@@@@@@@@@@@@@@@@@@@@@@ oo o OOOO  @@@@@@@@@@@@@@@@@@@@@",
"@@@@@@@@@@@@@@@@@@@@@@ oo  o OO OOO @@@@@@@@@@@@@@@@@@@@",
"@@@@@@@@@@@@@@@@@@@@@@ o @ o  OO OOO @@@@@@@@@@@@@@@@@@@",
"@@@@@@@@@@@@@@@@@@@@@ o @@ o  OOO OO @@@@@@@@@@@@@@@@@@@",
"@@@@@@@@@@@@@@@@@@@@@ o @@ o @ OOO OO @@@@@@@@@@@@@@@@@@",
"@@@@@@@@@@@@@@@@@@@@ o @@@ o @@ OOO O @@@@@@@@@@@@@@@@@@",
"@@@@@@@@@@@@@@@@@@@@ o @@@ oo @@  OOO @@@@@@@@@@@@@@@@@@",
"@@@@@@@@@@@@@@@@@@@@ o @@@@ o @@@@    @@@@@@@@@@@@@@@@@@",
"@@@@@@@@@@@@@@@@@@@  o  @@@ oo @     @@@@@@@@@@@@@@@@@@@",
"@@@@@@@@@@@@@@@@@  X o X  @@ oo XXXXX  @@@@@@@@@@@@@@@@@",
"@@@@@@@@@@@@@@@@ XXX o XXX @@ oo X XXXX @@@@@@@@@@@@@@@@",
"@@@@@@@@@@@@@@@ XX X o  XXX  X oo  XXXXX @@@@@@@@@@@@@@@",
"@@@@@@@@@@@@@@@ XXX    XXXX  XX o XX++XX @@@@@@@@@@@@@@@",
"@@@@@@@@@@@@@@ .X++XXXXXXXXX X   XXX++XXX @@@@@@@@@@@@@@",
"@@@@@@@@@@@@@@ ..++XXXXXXXXX .XXXXXXXXXXX @@@@@@@@@@@@@@",
"@@@@@@@@@@@@@@ ..XXXXXXXXXXX ..XXXXXXX+XX @@@@@@@@@@@@@@",
"@@@@@@@@@@@@@@ .+.XXXXXXXXXX ..XXXXXXXXXX @@@@@@@@@@@@@@",
"@@@@@@@@@@@@@@ ...XXXXXXXXXX ..XXXXXXXXXX @@@@@@@@@@@@@@",
"@@@@@@@@@@@@@@@ ...XXXXXXXX  ...XXXXXXXX @@@@@@@@@@@@@@@",
"@@@@@@@@@@@@@@@ ....XXXXXXX  ....XXXXXXX @@@@@@@@@@@@@@@",
"@@@@@@@@@@@@@@@@ ......... @@ ......... @@@@@@@@@@@@@@@@",
"@@@@@@@@@@@@@@@@@  .....  @@@@  .....  @@@@@@@@@@@@@@@@@",
"@@@@@@@@@@@@@@@@@@@     @@@@@@@@     @@@@@@@@@@@@@@@@@@@",
"@@@@@@@@@@@@@@@@@@@@@@@@@@@@@@@@@@@@@@@@@@@@@@@@@@@@@@@@",
"@@@@@@@@@@@@@@@@@@@@@@@@@@@@@@@@@@@@@@@@@@@@@@@@@@@@@@@@",
"@@@@@@@@@@@@@@@@@@@@@@@@@@@@@@@@@@@@@@@@@@@@@@@@@@@@@@@@",
"@@@@@@@@@@@@@@@@@@@@@@@@@@@@@@@@@@@@@@@@@@@@@@@@@@@@@@@@",
"@@@@@@@@@@@@@@@@@@@@@@@@@@@@@@@@@@@@@@@@@@@@@@@@@@@@@@@@",
"@@@@@@@@@@@@@@@@@@@@@@@@@@@@@@@@@@@@@@@@@@@@@@@@@@@@@@@@",
"@@@@@@@@@@@@@@@@@@@@@@@@@@@@@@@@@@@@@@@@@@@@@@@@@@@@@@@@",
"@@@@@@@@@@@@@@@@@@@@@@@@@@@@@@@@@@@@@@@@@@@@@@@@@@@@@@@@",
"@@@@@@@@@@@@@@@@@@@@@@@@@@@@@@@@@@@@@@@@@@@@@@@@@@@@@@@@",
"@@@@@@@@@@@@@@@@@@@@@@@@@@@@@@@@@@@@@@@@@@@@@@@@@@@@@@@@",
"@@@@@@@@@@@@@@@@@@@@@@@@@@@@@@@@@@@@@@@@@@@@@@@@@@@@@@@@",
"@@@@@@@@@@@@@@@@@@@@@@@@@@@@@@@@@@@@@@@@@@@@@@@@@@@@@@@@",
"@@@@@@@@@@@@@@@@@@@@@@@@@@@@@@@@@@@@@@@@@@@@@@@@@@@@@@@@",
"@@@@@@@@@@@@@@@@@@@@@@@@@@@@@@@@@@@@@@@@@@@@@@@@@@@@@@@@"
};
