/* XPM */
static char *result[] = {
/* columns rows colors chars-per-pixel */
"56 56 6 1 ",
"  c #04164A",
". c #1A237E",
"X c #06BFBF",
"o c #2196F3",
"O c #18FFFF",
"+ c None",
/* pixels */
"+++++++++++++++++++++++OOOOOOOOOO+++++++++++++++++++++++",
"+++++++++++++++++++++++OXXXXXXXXO+++++++++++++++++++++++",
"+++++++++++++++++++++++OXooooooXO+++++++++++++++++++++++",
"+++++++++++++++++++++++OXo....oXO+++++++++++++++++++++++",
"+++++++++++++++++++++++OXo.  .oXO+++++++++++++++++++++++",
"+++++++++++++++++++++++OXo.  .oXO+++++++++++++++++++++++",
"+++++++++++++++++++++++OXo.  .oXO+++++++++++++++++++++++",
"+++++++++++++++++++++++OXo.  .oXO+++++++++++++++++++++++",
"+++++++++++++++++++++++OXo.  .oXO+++++++++++++++++++++++",
"+++++++++++++++++++++++OXo.  .oXO+++++++++++++++++++++++",
"+++++++++++++++++++++++OXo.  .oXO+++++++++++++++++++++++",
"+++++++++++++++++++++++OXo.  .oXO+++++++++++++++++++++++",
"+++++++++++++++OOOOOOOOOXo.  .oXOOOOOOOOO+++++++++++++++",
"++++++++++++++++OXXXXXXXXo.  .oXXXXXXXXO++++++++++++++++",
"+++++++++++++++++OXooooooo.  .oooooooXO+++++++++++++++++",
"++++++++++++O+++++OXo......  ......oXO+++++O++++++++++++",
"++++++++++++OO+++++OXo.          .oXO+++++OO++++++++++++",
"++++++++++++OXO+++++OXo.        .oXO+++++OXO++++++++++++",
"++++++++++++OXXO+++++OXo.      .oXO+++++OXXO++++++++++++",
"++++++++++++OXoXO+++++OXo.    .oXO+++++OXoXO++++++++++++",
"++++++++++++OXooXO+++++OXo.  .oXO+++++OXooXO++++++++++++",
"++++++++++++OXo.oXO+++++OXo..oXO+++++OXo.oXO++++++++++++",
"++++++++++++OXo..oXO+++++OXooXO+++++OXo..oXO++++++++++++",
"OOOOOOOOOOOOOXo. .oXO+++++OXXO+++++OXo. .oXOOOOOOOOOOOOO",
"OXXXXXXXXXXXXXo.  .oXO+++++OO+++++OXo.  .oXXXXXXXXXXXXXO",
"OXooooooooooooo.   .oXO++++++++++OXo.   .oooooooooooooXO",
"OXo.............    .oXO++++++++OXo.    .............oXO",
"OXo.                 .oXO++++++OXo.                 .oXO",
"OXo.                 .oXO++++++OXo.                 .oXO",
"OXo.............    .oXO++++++++OXo.    .............oXO",
"OXooooooooooooo.   .oXO++++++++++OXo.   .oooooooooooooXO",
"OXXXXXXXXXXXXXo.  .oXO+++++OO+++++OXo.  .oXXXXXXXXXXXXXO",
"OOOOOOOOOOOOOXo. .oXO+++++OXXO+++++OXo. .oXOOOOOOOOOOOOO",
"++++++++++++OXo..oXO+++++OXooXO+++++OXo..oXO++++++++++++",
"++++++++++++OXo.oXO+++++OXo..oXO+++++OXo.oXO++++++++++++",
"++++++++++++OXooXO+++++OXo.  .oXO+++++OXooXO++++++++++++",
"++++++++++++OXoXO+++++OXo.    .oXO+++++OXoXO++++++++++++",
"++++++++++++OXXO+++++OXo.      .oXO+++++OXXO++++++++++++",
"++++++++++++OXO+++++OXo.        .oXO+++++OXO++++++++++++",
"++++++++++++OO+++++OXo.          .oXO+++++OO++++++++++++",
"++++++++++++O+++++OXo......  ......oXO+++++O++++++++++++",
"+++++++++++++++++OXooooooo.  .oooooooXO+++++++++++++++++",
"++++++++++++++++OXXXXXXXXo.  .oXXXXXXXXO++++++++++++++++",
"+++++++++++++++OOOOOOOOOXo.  .oXOOOOOOOOO+++++++++++++++",
"+++++++++++++++++++++++OXo.  .oXO+++++++++++++++++++++++",
"+++++++++++++++++++++++OXo.  .oXO+++++++++++++++++++++++",
"+++++++++++++++++++++++OXo.  .oXO+++++++++++++++++++++++",
"+++++++++++++++++++++++OXo.  .oXO+++++++++++++++++++++++",
"+++++++++++++++++++++++OXo.  .oXO+++++++++++++++++++++++",
"+++++++++++++++++++++++OXo.  .oXO+++++++++++++++++++++++",
"+++++++++++++++++++++++OXo.  .oXO+++++++++++++++++++++++",
"+++++++++++++++++++++++OXo.  .oXO+++++++++++++++++++++++",
"+++++++++++++++++++++++OXo....oXO+++++++++++++++++++++++",
"+++++++++++++++++++++++OXooooooXO+++++++++++++++++++++++",
"+++++++++++++++++++++++OXXXXXXXXO+++++++++++++++++++++++",
"+++++++++++++++++++++++OOOOOOOOOO+++++++++++++++++++++++"
};
