/* XPM */
static char *result[] = {
/* columns rows colors chars-per-pixel */
"56 56 4 1 ",
"  c black",
". c #FFF200",
"X c white",
"o c None",
/* pixels */
"oooooooooooooooooooooooooooooooooooooooooooooooooooooooo",
"oooooooooooooooooooooooooooooooooooooooooooooooooooooooo",
"oooooooooooooooooooooooooooooooooooooooooooooooooooooooo",
"oooooooooooooooooooooooooooooooooooooooooooooooooooooooo",
"oooooooooooooooooooooooooooooooooooooooooooooooooooooooo",
"oooooooooooooooooooooooooooooooooooooooooooooooooooooooo",
"oooooooooooooooooooooooooooooooooooooooooooooooooooooooo",
"oooooooooooooo    oooooooooooooooooooo    oooooooooooooo",
"oooooooooooo       oooooooooooooooooo       oooooooooooo",
"ooooooooooo    ..  oooooooooooooooooo  ..    ooooooooooo",
"oooooooooo   ....   oooooooooooooooo   ....   oooooooooo",
"ooooooooo   ......  oooooooooooooooo  ......   ooooooooo",
"oooooooo   .......   oooooooooooooo   .......   oooooooo",
"oooooooo  .........  ooooooooooooo   .........  oooooooo",
"ooooooo   .........   oooooooooooo  ..........   ooooooo",
"oooooo   ...........  ooooooooooo   ...........   oooooo",
"oooooo  ............   oooooooooo  .............  oooooo",
"ooooo   .............  ooooooooo   .............   ooooo",
"ooooo  ..............   ooooooo   ...............  ooooo",
"oooo   ...............  ooooooo  ................   oooo",
"oooo  ................   ooooo   ......    XX.....  oooo",
"oooo  .................  ooooo  .......    XX.....  oooo",
"oooo  .................   ooo   .....      XXXX...  oooo",
"ooo   ..................  oo   ......      XXXX...   ooo",
"ooo  ...................   o  .......          ....  ooo",
"ooo  ....................     .......          ....  ooo",
"ooo  ....................    ..........      ......  ooo",
"ooo  .....................   ..........      ......  ooo",
"ooo  .....................  .......................  ooo",
"ooo  ..............................................  ooo",
"ooo  ..............................................  ooo",
"ooo  ..............................................  ooo",
"ooo   ............................................   ooo",
"oooo  ............................................  oooo",
"oooo  ............................................  oooo",
"oooo  ............................................  oooo",
"oooo   ..........................................   oooo",
"ooooo  ..........................................  ooooo",
"ooooo   ........................................   ooooo",
"oooooo  ........................................  oooooo",
"oooooo   ......................................   oooooo",
"ooooooo   ....................................   ooooooo",
"oooooooo  ....................................  oooooooo",
"oooooooo   ..................................   oooooooo",
"ooooooooo   ................................   ooooooooo",
"oooooooooo   ..............................   oooooooooo",
"ooooooooooo    ..........................    ooooooooooo",
"oooooooooooo    ........................    oooooooooooo",
"oooooooooooooo    ....................    oooooooooooooo",
"ooooooooooooooo     ................     ooooooooooooooo",
"ooooooooooooooooo       ........       ooooooooooooooooo",
"ooooooooooooooooooo                  ooooooooooooooooooo",
"ooooooooooooooooooooooo          ooooooooooooooooooooooo",
"oooooooooooooooooooooooooooooooooooooooooooooooooooooooo",
"oooooooooooooooooooooooooooooooooooooooooooooooooooooooo",
"oooooooooooooooooooooooooooooooooooooooooooooooooooooooo"
};
