/* XPM */
static char *result[] = {
/* columns rows colors chars-per-pixel */
"56 56 13 1 ",
"  c black",
". c #010100",
"X c #070700",
"o c #0B0B00",
"O c #101000",
"+ c #F9ED00",
"@ c #FAED00",
"# c #FBEE00",
"$ c #FDF000",
"% c #FFF200",
"& c #FFF20E",
"* c white",
"= c None",
/* pixels */
"========================================================",
"========================================================",
"========================================================",
"=======================          =======================",
"===================                  ===================",
"=================       @%%%%%%%       =================",
"===============     %%%%%%%%%%%%%%%%     ===============",
"==============    %%%%%%%%%%%%%%%%%%%%    ==============",
"============    %%%%%%%%%%%%%%%%%%%%%%%%    ============",
"===========    %%%%%%%%%%%%%%%%%%%%%%%%%%    ===========",
"==========   %%%%%%%%%%%%%%%%%%%%%%%%%%%%%%   ==========",
"=========   %%%%%%%%%%%%%%%%%%%%%%%%%%%%%%%%   =========",
"========   %%%%%%%%%%%%%%%%%%%%%%%%%%%%%%%%%%   ========",
"========  %%%%%%%%%%%%%%%%%%%%%%%%%%%%%%%%%%%%  ========",
"=======   +%%%%%%%%%%%%%%%%%%%%%%%%%%%%%%%%%%%   =======",
"======   %%%%%%%%%%%%%%%%%%%%%%%%%%%%%%%%%%%%%%   ======",
"======  %%%%%%%%%%%%%%%%%%%%%%%%%%%%%%%%%%%%%%%%  ======",
"=====   %%%%%%%%%%%%%%%%%%%%%%%%%%%%%%%%%%%%%%%%   =====",
"=====  %%%%%%%%%%%%%%%%%%%%%%%%%%%%%%%%%%%%%%%%%%  =====",
"====   %%%%%%%%%%%%%%%%%%%%%%%%%%%%%%%%%%%%%%%%%%   ====",
"====  %%%%%%%%%%%%%%%%%%%%%%%%%%%%%%%%%%%%%%%%%%%%  ====",
"====  %%%%%%%%%%%%%%%%%%%%%%%%%%%%%%%%%%%%%%%%%%%%  ====",
"====  %%%%%%%%%%%%%%%%%%%%%%%%%%%%%%%%%%%%%%%%%%%%  ====",
"===   %%%%%%%%%%%%%%%%%%%%%%%%%%%%%%%%%%%%%%%%%%%%   ===",
"===  %%%%%%%%%%%%%%%%%%%%%%%%%%%%%%%%%%%%%%%%%%%%%%  ===",
"===  %%%%%%%%%%%%%%%%%%%%%%%%%%%%%%%%%%%%%%%%%%%%%%  ===",
"===  %%%%%%%%%%%%%%%%%%%%%%%%%%%%%%%%%%%%%%%%%%%%%%  ===",
"===  %%%%%%%%%%%%%%%%%%%%%%%%%%%%%%%%%%%%%%%%%%%%%%  ===",
"===  %%%%%%%%%%%%%%%%%%%%%%%%%%%%%%%%%%      %%%%%%  ===",
"===  %%%%%%%%%%%%%%%%%%%%%%%%%%%%%%%%%%      %%%%%%  ===",
"===  %%%%%%%%%%%%%%%%%%%%%%%%%%%%%%%%  O    X  %%%%  ===",
"===  %%%%%%%%%%%%%%%%%%%%%%%%%%%%%%%%          %%%%  ===",
"===   %%%%%%%%%%%%%%%%%%%%%%%%%%%%%%%  .   ****%%%   ===",
"====  %%%%%%%%%%%%%%%%%%%%%%%%%%%%%%%      ****&%%  ====",
"====  %%%%%%%%%%%%%%%%%%%%%%%%%%%%%%%%% oo **%%%%%  ====",
"====  %%%%%%%%%%%%%%%%%%%%%%%%%%%%%%%%%    **%%%%%  ====",
"====   %%%%%%%%%%%%%%%%%%%%%%%%%%%%%%%%%%%%%%%%%%   ====",
"=====  %%%%%%%%%%%%%%%%%%%%%%%%%%%%%%%%%%%%%%%%%%  =====",
"=====   %%%%%%%%%%%%%%%%%%%%%%%%%%%%%%%%%%%%%%%%   =====",
"======  %%%%%%%%%%%%%%%%%%%%%%%%%%%%%%%%%%%%%%%%  ======",
"======   %%%%%%%%%%%%%%%%%%%%%%%%%%%%%%%%%%%%%%   ======",
"=======   %%%%%%%%%%%%%%%%%%%%%%%%%%%%%%%%%%%%   =======",
"========  %%%%%%%%%%%%%%%%%%%%%%%%%%%%%%%%%%%%  ========",
"========   %%%%%%%%%%%%%%%%%%%%%%%%%%%%%%%%%%   ========",
"=========   %%%%%%%%%%%%%%%%%%%%%%%%%%%%%%%%   =========",
"==========   %%%%%%%%%%%%%%%%%%%%%%%%%%%%%%   ==========",
"===========    %%%%%%%%%%%%%%%%%%%%%%%%%%    ===========",
"============    %#%%%%%%%%%%%%%%%%%%%%%%    ============",
"==============    +%%%%%%%%%%%%%%%%%%%    ==============",
"===============     %@%%%%%%%%%%%%%%     ===============",
"=================      %$%%%%%%#       =================",
"===================                  ===================",
"=============================    =======================",
"========================================================",
"========================================================",
"========================================================"
};
