/* XPM */
static char *result[] = {
/* columns rows colors chars-per-pixel */
"56 56 4 1 ",
"  c black",
". c #FFF200",
"X c white",
"o c None",
/* pixels */
"oooooooooooooooooooooooooooooooooooooooooooooooooooooooo",
"oooooooooooooooooooooooooooooooooooooooooooooooooooooooo",
"oooooooooooooooooooooooooooooooooooooooooooooooooooooooo",
"ooooooooooooooooooooooo          ooooooooooooooooooooooo",
"ooooooooooooooooooo                  ooooooooooooooooooo",
"ooooooooooooooooo       ........       ooooooooooooooooo",
"ooooooooooooooo     ................     ooooooooooooooo",
"oooooooooooooo    ....................    oooooooooooooo",
"oooooooooooo    ........................    oooooooooooo",
"ooooooooooo    ..........................    ooooooooooo",
"oooooooooo   ..............................   oooooooooo",
"ooooooooo   ................................   ooooooooo",
"oooooooo   ..................................   oooooooo",
"oooooooo  ....................................  oooooooo",
"ooooooo   ....................................   ooooooo",
"oooooo   ......................................   oooooo",
"oooooo  ........................................  oooooo",
"ooooo   ........................................   ooooo",
"ooooo  ..........................................  ooooo",
"oooo   ..........................................   oooo",
"oooo  ............................................  oooo",
"oooo  ............................................  oooo",
"oooo  ............................................  oooo",
"ooo   ............................................   ooo",
"ooo  ..............................................  ooo",
"ooo  ..............................................  ooo",
"ooo  ..............................................  ooo",
"ooo  .......................  .....................  ooo",
"ooo  ......      ..........   .....................  ooo",
"ooo  ......      ..........    ....................  ooo",
"ooo  ....          .......     ....................  ooo",
"ooo  ....          .......  o   ...................  ooo",
"ooo   ...XXXX      ......   oo  ..................   ooo",
"oooo  ...XXXX      .....   ooo   .................  oooo",
"oooo  .....XX    .......  ooooo  .................  oooo",
"oooo  .....XX    ......   ooooo   ................  oooo",
"oooo   ................  ooooooo  ...............   oooo",
"ooooo  ...............   ooooooo   ..............  ooooo",
"ooooo   .............   ooooooooo  .............   ooooo",
"oooooo  .............  oooooooooo   ............  oooooo",
"oooooo   ...........   ooooooooooo  ...........   oooooo",
"ooooooo   ..........  oooooooooooo   .........   ooooooo",
"oooooooo  .........   ooooooooooooo  .........  oooooooo",
"oooooooo   .......   oooooooooooooo   .......   oooooooo",
"ooooooooo   ......  oooooooooooooooo  ......   ooooooooo",
"oooooooooo   ....   oooooooooooooooo   ....   oooooooooo",
"ooooooooooo    ..  oooooooooooooooooo  ..    ooooooooooo",
"oooooooooooo       oooooooooooooooooo       oooooooooooo",
"oooooooooooooo    oooooooooooooooooooo    oooooooooooooo",
"oooooooooooooooooooooooooooooooooooooooooooooooooooooooo",
"oooooooooooooooooooooooooooooooooooooooooooooooooooooooo",
"oooooooooooooooooooooooooooooooooooooooooooooooooooooooo",
"oooooooooooooooooooooooooooooooooooooooooooooooooooooooo",
"oooooooooooooooooooooooooooooooooooooooooooooooooooooooo",
"oooooooooooooooooooooooooooooooooooooooooooooooooooooooo",
"oooooooooooooooooooooooooooooooooooooooooooooooooooooooo"
};
