/* XPM */
static char *result[] = {
/* columns rows colors chars-per-pixel */
"56 56 3 1 ",
"  c black",
". c #FFF200",
"X c white",
/* pixels */
"                                                        ",
"                                                        ",
"                       ..........                       ",
"                    ................                    ",
"                 ......................                 ",
"               ..........................               ",
"              ............................              ",
"            ..................  XX..........            ",
"           ...................  XX...........           ",
"          ..................    XXXX..........          ",
"         ...................    XXXX...........         ",
"        ....................        ............        ",
"       .....................        .............       ",
"       .....................        ..............      ",
"      ......................        ..............      ",
"     .........................    .................     ",
"     .........................    .................     ",
"    ................................................    ",
"    ................................................    ",
"    ................................................    ",
"   ..................................................   ",
"   ..................................................   ",
"   ..................................................   ",
"  ....................................................  ",
"  ....................................................  ",
"  ....................................................  ",
"  ....................................................  ",
"  ....................................................  ",
"  ........................                              ",
"  ........................                              ",
"  ....................................................  ",
"  ....................................................  ",
"  ....................................................  ",
"   ..................................................   ",
"   ..................................................   ",
"   ..................................................   ",
"    ................................................    ",
"    ................................................    ",
"    ................................................    ",
"     ..............................................     ",
"     .............................................      ",
"      ............................................      ",
"       ..........................................       ",
"       ..........................................       ",
"        ........................................        ",
"         ......................................         ",
"          ....................................          ",
"           ..................................           ",
"            ................................            ",
"              ............................              ",
"               ..........................               ",
"                 ......................                 ",
"                    ................                    ",
"                       ..........                       ",
"                                                        ",
"                                                        "
};
