/* XPM */
static char *result[] = {
/* columns rows colors chars-per-pixel */
"56 56 4 1 ",
"  c black",
". c #FFF200",
"X c white",
"o c None",
/* pixels */
"oooooooooooooooooooooooooooooooooooooooooooooooooooooooo",
"oooooooooooooooooooooooooooooooooooooooooooooooooooooooo",
"oooooooooooooooooooooooooooooooooooooooooooooooooooooooo",
"ooooooooooooooooooooooo          ooooooooooooooooooooooo",
"ooooooooooooooooooo                  ooooooooooooooooooo",
"ooooooooooooooooo       ........       ooooooooooooooooo",
"ooooooooooooooo     ................     ooooooooooooooo",
"oooooooooooooo    ....................    oooooooooooooo",
"oooooooooooo    ........................    oooooooooooo",
"ooooooooooo    .......XX  ...............    ooooooooooo",
"oooooooooo   .........XX  .................   oooooooooo",
"ooooooooo   ........XXXX    ................   ooooooooo",
"oooooooo   .........XXXX    .................   oooooooo",
"oooooooo  ..........        ..................  oooooooo",
"ooooooo   ..........        ..................   ooooooo",
"ooooooo  ...........        ...................   oooooo",
"ooooooo  ...........        ....................  oooooo",
"ooooooo    ...........    ......................   ooooo",
"oooooooo     .........    .......................  ooooo",
"oooooooooo    ...................................   oooo",
"oooooooooooo    ..................................  oooo",
"ooooooooooooo     ................................  oooo",
"ooooooooooooooo    ...............................  oooo",
"ooooooooooooooooo    .............................   ooo",
"oooooooooooooooooo     ............................  ooo",
"oooooooooooooooooooo    ...........................  ooo",
"oooooooooooooooooooooo    .........................  ooo",
"ooooooooooooooooooooooo     .......................  ooo",
"ooooooooooooooooooooooooo    ......................  ooo",
"oooooooooooooooooooooooo     ......................  ooo",
"oooooooooooooooooooooo     ........................  ooo",
"oooooooooooooooooooo     ..........................  ooo",
"oooooooooooooooooo     ...........................   ooo",
"oooooooooooooooo     .............................  oooo",
"oooooooooooooo     ...............................  oooo",
"oooooooooooo     .................................  oooo",
"oooooooooo     ..................................   oooo",
"oooooooo     ....................................  ooooo",
"ooooooo    .....................................   ooooo",
"ooooooo  .......................................  oooooo",
"ooooooo  ......................................   oooooo",
"ooooooo   ....................................   ooooooo",
"oooooooo  ....................................  oooooooo",
"oooooooo   ..................................   oooooooo",
"ooooooooo   ................................   ooooooooo",
"oooooooooo   ..............................   oooooooooo",
"ooooooooooo    ..........................    ooooooooooo",
"oooooooooooo    ........................    oooooooooooo",
"oooooooooooooo    ....................    oooooooooooooo",
"ooooooooooooooo     ................     ooooooooooooooo",
"ooooooooooooooooo       ........       ooooooooooooooooo",
"ooooooooooooooooooo                  ooooooooooooooooooo",
"ooooooooooooooooooooooo          ooooooooooooooooooooooo",
"oooooooooooooooooooooooooooooooooooooooooooooooooooooooo",
"oooooooooooooooooooooooooooooooooooooooooooooooooooooooo",
"oooooooooooooooooooooooooooooooooooooooooooooooooooooooo"
};
