/* XPM */
static char *result[] = {
/* columns rows colors chars-per-pixel */
"56 56 5 1 ",
"  c #04164A",
". c #1A237E",
"X c #06BFBF",
"o c #2196F3",
"O c #18FFFF",
/* pixels */
"OOOOOOOOOOOOOOOOOOOOOOOOOOOOOOOOOOOOOOOOOOOOOOOOOOOOOOOO",
"OXXXXXXXXXXXXXXXXXXXXXXXXXXXXXXXXXXXXXXXXXXXXXXXXXXXXXXO",
"OXooooooooooooooooooooooooooooooooooooooooooooooooooooXO",
"OXo..................................................oXO",
"OXo.                                                .oXO",
"OXo.                                                .oXO",
"OXo.                                                .oXO",
"OXo.                                                .oXO",
"OXo.                                                .oXO",
"OXo.                                                .oXO",
"OXo.                                                .oXO",
"OXo.                                                .oXO",
"OXo.                                                .oXO",
"OXo.                                                .oXO",
"OXo.                                                .oXO",
"OXo.                                                .oXO",
"OXo.                                                .oXO",
"OXo.                                                .oXO",
"OXo.                                                .oXO",
"OXo.                                                .oXO",
"OXo.                                                .oXO",
"OXo.                                                .oXO",
"OXo.                                                .oXO",
"OXo.                                                .oXO",
"OXo.                                                .oXO",
"OXo.                                                .oXO",
"OXo.                                                .oXO",
"OXo.                                                .oXO",
"OXo.                                                .oXO",
"OXo.                                                .oXO",
"OXo.                                                .oXO",
"OXo.                                                .oXO",
"OXo.                                                .oXO",
"OXo.                                                .oXO",
"OXo.                                                .oXO",
"OXo.                                                .oXO",
"OXo.                                                .oXO",
"OXo.                                                .oXO",
"OXo.                                                .oXO",
"OXo.                                                .oXO",
"OXo.                                                .oXO",
"OXo.                                                .oXO",
"OXo.                                                .oXO",
"OXo.                                                .oXO",
"OXo.                                                .oXO",
"OXo.                                                .oXO",
"OXo.                                                .oXO",
"OXo.                                                .oXO",
"OXo.                                                .oXO",
"OXo.                                                .oXO",
"OXo.                                                .oXO",
"OXo.                                                .oXO",
"OXo..................................................oXO",
"OXooooooooooooooooooooooooooooooooooooooooooooooooooooXO",
"OXXXXXXXXXXXXXXXXXXXXXXXXXXXXXXXXXXXXXXXXXXXXXXXXXXXXXXO",
"OOOOOOOOOOOOOOOOOOOOOOOOOOOOOOOOOOOOOOOOOOOOOOOOOOOOOOOO"
};
